<?xml version="1.0" encoding="UTF-8"?>
<svg width="512px" height="512px" viewBox="0 0 512 512" version="1.1" xmlns="http://www.w3.org/2000/svg" xmlns:xlink="http://www.w3.org/1999/xlink">
    <title>画板备份 5</title>
    <defs>
        <linearGradient x1="50%" y1="0%" x2="50%" y2="100%" id="linearGradient-1">
            <stop stop-color="#74B7FC" offset="0%"></stop>
            <stop stop-color="#2890FF" offset="100%"></stop>
        </linearGradient>
    </defs>
    <g id="画板备份-5" stroke="none" stroke-width="1" fill="none" fill-rule="evenodd">
        <g id="编组备份-2">
            <rect id="矩形备份" fill="#FFFFFF" x="0" y="0" width="512" height="512"></rect>
            <g id="编组" transform="translate(105.789954, 105.789954)" fill="url(#linearGradient-1)">
                <path d="M150.209703,0.584474886 C233.183802,0.584474886 299.835616,67.9160074 299.835616,150.210217 C299.835616,197.137975 278.75168,238.624977 245.426287,265.829782 L245.426287,286.233214 C245.426287,293.034586 238.624907,299.835616 231.823869,299.835616 L144.088803,299.835616 C64.5150519,296.43493 0.584474886,230.463672 0.584474886,150.209874 C0.584474886,67.9160074 67.2359465,0.584474886 150.210046,0.584474886 L150.209703,0.584474886 Z M210.060137,120.284863 C201.879303,120.284863 195.23169,126.850619 195.099498,134.999937 L195.097443,135.24754 C195.097443,160.038303 175.000494,180.135228 150.209703,180.135228 C125.418912,180.135228 105.321963,160.038303 105.321963,135.24754 L105.319909,134.999937 C105.188059,126.850619 98.5404463,120.284863 90.3596119,120.284863 C82.0959006,120.284863 75.3969178,126.983838 75.3969178,135.247197 C75.3969178,135.335554 75.3969178,135.423225 75.3969178,135.511581 C75.5397262,176.708172 108.979846,210.06024 150.209703,210.06024 C191.527917,210.06024 225.022831,176.565364 225.022831,135.24754 L225.020776,134.999937 C224.888584,126.850619 218.240971,120.284863 210.060137,120.284863 L210.060137,120.284863 Z" id="形状"></path>
            </g>
        </g>
    </g>
</svg>